<?xml version="1.0" encoding="UTF-8" standalone="no"?>
<!-- Created with Inkscape (http://www.inkscape.org/) -->

<svg
   width="141.5878mm"
   height="141.16373mm"
   viewBox="0 0 141.5878 141.16373"
   version="1.1"
   id="svg5"
   inkscape:version="1.1.2 (b8e25be833, 2022-02-05)"
   sodipodi:docname="Luminosity Gaming 2015.svg"
   xmlns:inkscape="http://www.inkscape.org/namespaces/inkscape"
   xmlns:sodipodi="http://sodipodi.sourceforge.net/DTD/sodipodi-0.dtd"
   xmlns:xlink="http://www.w3.org/1999/xlink"
   xmlns="http://www.w3.org/2000/svg"
   xmlns:svg="http://www.w3.org/2000/svg">
  <sodipodi:namedview
     id="namedview7"
     pagecolor="#ffffff"
     bordercolor="#666666"
     borderopacity="1.0"
     inkscape:pageshadow="2"
     inkscape:pageopacity="0.0"
     inkscape:pagecheckerboard="0"
     inkscape:document-units="mm"
     showgrid="false"
     inkscape:zoom="0.64052329"
     inkscape:cx="200.61722"
     inkscape:cy="234.18352"
     inkscape:window-width="1920"
     inkscape:window-height="1017"
     inkscape:window-x="-8"
     inkscape:window-y="-8"
     inkscape:window-maximized="1"
     inkscape:current-layer="layer1" />
  <defs
     id="defs2">
    <radialGradient
       id="a"
       cx="-191.16"
       cy="-157.53"
       r="152.85001"
       gradientUnits="userSpaceOnUse"
       gradientTransform="matrix(1.10161,0,0,1.08048,378.036,337.65)">
      <stop
         stop-color="#03d6ed"
         id="stop824" />
      <stop
         offset=".333"
         stop-color="#03d6ed"
         id="stop826" />
      <stop
         offset="1"
         stop-color="#17446e"
         id="stop828" />
    </radialGradient>
    <filter
       color-interpolation-filters="sRGB"
       id="b"
       x="-0.031199724"
       width="1.0623994"
       y="-0.031198693"
       height="1.0623974">
      <feGaussianBlur
         stdDeviation="13.687"
         id="feGaussianBlur831" />
    </filter>
  </defs>
  <g
     inkscape:label="Layer 1"
     inkscape:groupmode="layer"
     id="layer1"
     transform="translate(-51.888991,-86.386147)">
    <g
       id="g868"
       transform="matrix(0.42137688,0,0,0.42137688,51.915231,86.412492)">
      <path
         fill="url(#a)"
         d="M 320.309,167.437 A 152.85,152.85 0 0 1 167.62,320.287 152.85,152.85 0 0 1 14.61,167.76 152.85,152.85 0 0 1 166.974,14.588 152.85,152.85 0 0 1 320.307,166.792"
         id="path836"
         style="fill:url(#a)" />
      <path
         fill="#08344e"
         d="m 257.386,51.7 5.908,-1.935 c 7.55,-2.473 11.355,-3.2 17.806,-3.394 5.886,-0.178 9.47,0.294 14.248,1.878 12.02,3.984 19.673,11.265 30.09,28.625 2.758,4.595 10.512,19.337 10.512,19.985 0,0.123 -1.789,-1.52 -3.975,-3.651 -6.15,-5.996 -11.37,-9.815 -17.359,-12.698 -4.944,-2.38 -7.78,-3.102 -12.266,-3.12 -3.503,-0.014 -3.916,0.048 -6.259,0.936 -4.064,1.54 -6.94,3.468 -6.94,4.65 z m -82.99,205.72 c -24.07,-1.186 -51.38,-0.832 -73.65,-11.96 -16.528,-12.72 -22.344,-13.983 -14.57,-19.418 29.417,-23.517 64.711,-59.31 87.01,-87.01 20.78,-25.816 35.757,-41.752 41.735,-56.1 4.38,-10.51 6.342,-19.05 5.543,-27.29 -0.763,-7.873 -4.249,-15.05 -8.518,-21.43 -0.922,-1.377 -0.465,-4 -0.397,-4.07 0.313,-0.313 11.246,3.235 17.02,5.508 4.18,1.644 12.772,5.827 17.1,8.323 1.65,0.952 5,3.065 7.442,4.696 0,0 3.092,1.805 4.442,2.966 11.773,10.123 22.617,19.568 31.766,31.28 1.191,1.525 1.328,2.596 2.951,4.998 6.08,9 12.533,20.874 15.58,28.668 2.553,6.535 6.392,23.376 7.692,33.75 0.996,7.947 1.187,11.276 1.207,21 0.021,10.566 -0.487,19.484 -1.21,21.25 -0.226,0.55 -1.546,2.509 -2.932,4.35 -9.39,12.476 -22.719,24.962 -36.646,34.33 -5.845,3.933 -10.363,6.517 -17.692,10.12 -11.429,5.618 -17.885,7.916 -29.85,10.625 -20.01,4.53 -37.12,6.245 -54.03,5.412 m 27.927,-13.638 c 12.6,-1.116 24.44,-3.387 34.2,-6.56 12.194,-3.961 25.23,-11.06 38.04,-20.72 12.01,-9.05 25.36,-21.956 29.07,-28.09 1.254,-2.073 2.027,-11.397 1.803,-21.725 -0.22,-10.172 -1.224,-17.923 -3.55,-27.45 -5.39,-22.06 -17.894,-45.43 -32.13,-60.06 -2.67,-2.742 -4.169,-3.84 -5.25,-3.841 -0.42,0 -2.257,1.356 -4.97,3.674 -2.366,2.02 -6.925,5.912 -10.132,8.647 -3.207,2.734 -6.91,5.965 -8.23,7.179 -5.856,5.385 -21.719,20.658 -29.44,28.346 -7.479,7.447 -8.55,8.634 -9.415,10.426 -0.894,1.854 -0.963,2.203 -0.83,4.2 0.131,1.97 0.373,2.648 2.548,7.128 5.712,11.765 8.56,20.37 8.544,25.816 -0.022,7.237 -2.516,15.204 -6.559,20.95 -1.98,2.816 -5.905,6.517 -8.874,8.368 -4.919,3.068 -9.84,4.566 -14.998,4.566 -5.57,0 -9.05,-1.635 -14.03,-6.6 -1.79,-1.782 -3.98,-4.355 -5.04,-5.925 -1.034,-1.526 -2.04,-2.775 -2.238,-2.775 -0.492,0 -41.909,41.45 -41.909,41.943 0,0.483 2.776,1.763 7.978,3.678 13.528,4.979 30.425,8.225 48.27,9.272 6.143,0.36 20.764,0.12 27.15,-0.445 m -19.275,-48.96 c 0.206,-0.276 0.375,-0.76 0.375,-1.075 0,-3.5 -9.147,-10.784 -14.11,-11.234 -1.61,-0.146 -1.763,-0.104 -2.238,0.62 -0.429,0.656 -0.454,0.946 -0.158,1.844 1.07,3.242 7.512,8.544 12.267,10.1 1.865,0.609 3.288,0.516 3.86,-0.251 m 16.382,-32.901 c 0.543,-0.227 1.421,-0.936 1.951,-1.575 3.216,-3.882 1.956,-11.288 -2.19,-12.871 -1.804,-0.69 -3.182,-0.398 -4.728,0.999 -2.949,2.664 -3.426,7.857 -1.045,11.357 1.552,2.282 3.736,3.04 6.01,2.09"
         id="path838" />
      <g
         filter="url(#b)"
         transform="matrix(0.29953,0,0,0.29949,7.4,7.34)"
         id="g842">
        <path
           id="c"
           d="m 411.81,22.78 c 159.89,-40.13 339.73,3.812 464.25,111.98 -13.45,4.33 -26.75,8.579 -40.19,12.979 -45.01,-32.08 -97.21,-58.27 -151.04,-71.44 14.19,18.85 25.83,40.09 30.46,63.43 8.3,38.94 -0.98,79.26 -16.35,115.24 -23.13,53.51 -57.89,100.84 -92.93,147.05 -96.72,127.76 -212.43,240.32 -336.89,340.78 118.02,75.45 262.96,108.2 401.75,86.99 32.19,-4.5 64,-11.43 95.46,-19.49 105.16,-32.81 199.23,-101.28 262.47,-191.45 9.62,-72.49 3.64,-147.05 -14.84,-217.85 -11.2,-55.31 -44.52,-102.7 -73.04,-149.83 7.64,-7.03 16.728,-14.255 27.08,-15.755 82.31,118.08 111.96,272.73 80.49,413.01 -26.02,119.84 -96.06,229.21 -193.38,303.69 -53.3,40.99 -114.49,71.75 -179.31,89.68 -135.63,38.16 -286.37,19.02 -407.61,-52.96 -101.79,-59.5 -182.44,-154.16 -224.85,-264.19 -0.72,-2.87 -3.92,-6.68 -0.75,-9.06 86.65,-85.35 173.1,-170.9 259.99,-256 60.44,-60.99 111.56,-130.48 159.34,-201.61 19.67,-30.5 39.85,-60.94 55.11,-93.95 13.69,-31.74 19.82,-71.46 -0.08,-101.99 -23.28,-33.05 -67.86,-38.1 -105.14,-39.25 m 348.62,899.62 c -72.39,30.17 -151.39,41.7 -229.48,41.24 -134.97,-1.51 -265.02,-55.2 -374.08,-132.35 36.86,42.82 78.76,81.81 126.31,112.56 80.92,52.68 179.89,75.2 275.74,69.32 136.14,-8.62 269.04,-75.2 351.26,-185.02 -45.16,38.2 -94.75,71.88 -149.75,94.25 z" />
        <path
           id="d"
           d="M 91.61,249.61 C 148.58,160.91 232.77,90.12 329.9,49.15 275.71,84.8 220.78,123.21 183.34,177.37 c -32.05,45.41 -45.89,103.46 -37.01,158.37 8.82,51.24 38.31,96.89 75.52,132.22 C 155.48,530.88 89.38,595.03 22.33,656.7 -11.06,519.08 14.29,368.35 91.61,249.61" />
      </g>
      <g
         fill="#ffffff"
         transform="matrix(0.29953,0,0,0.29949,7.4,7.34)"
         id="g848">
        <use
           height="100%"
           width="100%"
           xlink:href="#c"
           id="use844"
           x="0"
           y="0" />
        <use
           height="100%"
           width="100%"
           xlink:href="#d"
           id="use846"
           x="0"
           y="0" />
      </g>
    </g>
  </g>
</svg>
